<svg viewBox="0 0 1224 1728" xmlns="http://www.w3.org/2000/svg"><path d="M693.37 484.12c22.88 1.26 42.1 4.1 55.02 37.81 12.91 33.71-20.25 78.05-29.89 103.62-9.64 25.57-37.03 83.57-40.81 159.84-3.78 76.27 16.74 93.81 20.91 104.12 4.17 10.31 20.86 28.64 24.5 30.19 3.64 1.56 34.57 22.31 66.28-80.53s62.55-187.55 26.45-244.51c-36.1-56.96-52.11-60.79-55.86-76.17-3.75-15.37-44.88-49.53-44.88-49.53l-21.72 15.16Z" fill="#76ad43" class="fill-6f8757"></path><path d="M911.82 694.22c14.75-3.8 76.07 6.25 97.13 32.48 21.06 26.23 47.91 73.64 30.37 96.05-17.54 22.41-36.17 42.75-57.2 23.8s-27.04-30.12-51.7-24c-24.66 6.13-116.7 26.15-128.87 21.38-12.16-4.77-44.71-36.33-44.71-36.33l154.99-113.39ZM1097.58 382.82c15.45 29.52-5.86 71.08-5.86 71.08s50.8-10.87 65.71 13.89c14.91 24.77-7.75 48.32-11.79 63.05-4.04 14.73-48.76 31.76-62.3 47.59-13.55 15.83-70.83 105.26-116.03 105.3-45.2.04-53.64-34.56-53.64-34.56s-12.14 21.6-40.35 21.15c-28.21-.44-92.66-6.7-88.56-33.67 4.11-26.97 21.56-82.96 57.11-89.45s83.77-20.39 97.49-15.5c13.72 4.9 37.69-11.96 37.69-11.96l46.45-106.33s1.55-110.04 18.14-117.14c16.59-7.11 40.49 57.01 55.95 86.53Z" fill="#ffe1d6" class="fill-fff0e1"></path><path d="M531.96 94.17c-10.92 8.53-10.27 21.75-4.78 57.98 5.49 36.23-5.25 63.59 25.73 110.4s53.37 83.5 79.72 95.09c26.35 11.59 81.15 32.12 84.04 42.71 2.89 10.6-22.3 60.21-22.07 68.8.23 8.59 20.49-.19 20.49-.19s8.95-15.27 13.18-37.99c3.78-20.3 6.02-27.28 6.02-27.28s15.42-15.68 19.82-57.68c4.41-42.01 3.36-86.35-3.59-104.81-6.95-18.46-58.91-106.55-101.29-129.82S545.05 83.95 531.96 94.17Z" fill="#76ad43" class="fill-6f8757"></path><path d="M339.2 981.24c8.62 21.06 22.92 98.87 7.3 162.56-15.61 63.68-43.38 135.78-70.15 175.94-26.77 40.16-78.27 59.45-84.2 51.43-5.93-8.02.3-106.37 6.2-132.25 5.9-25.88 15.04-45.39 27.05-65.34 12-19.95 37.61-56.44 39.62-80.76 2.01-24.32 16.92-83.35 16.92-83.35l57.25-28.23Z" fill="#317a3d" class="fill-48694d"></path><path d="M470.19 591.88c-.21-5.04-3.9-5.97 2.26-27.43s24.57-69.53 21.12-96.18c-3.45-26.65-30.38-111.1-48.29-152.75-17.91-41.65-31.15-40.86-35.8-68.24-4.65-27.38-47.18-83.61-78.11-99.97s-27.26-38.03-64.63-49.27c-37.36-11.24-72.21 7.85-72.57 12.22-.36 4.36 33.8 100.09 44.78 119.2 10.98 19.11 57.1 129.63 87.1 161.61 30 31.98 126.35 127.18 130.31 140.06 3.96 12.88-9.73 41.88-7.96 50.82 1.77 8.93 11.34 22.28 11.34 22.28l10.43-12.32Z" fill="#76ad43" class="fill-6f8757"></path><path d="M406.02 668.94c-.9 0-1.82-.17-2.71-.54-3.58-1.5-5.29-5.59-3.81-9.18.71-1.73 18.32-42.83 97.25-87.94l4.11-2.35c77.45-44.28 165.24-94.46 225.97-108.27 61.23-13.92 272.48 9.34 281.44 10.34 3.87.43 6.66 3.92 6.23 7.79-.43 3.87-3.94 6.67-7.79 6.23-2.17-.24-217.83-24-276.76-10.6-58.68 13.34-145.5 62.97-222.09 106.76l-4.11 2.35c-74.13 42.37-91.05 80.72-91.22 81.1a7.078 7.078 0 0 1-6.52 4.31ZM288.75 318.28c-14.7 3.18-72.35 24.79-109.21 114.02-36.86 89.23-62.44 132.95-45.19 201.54s50.91 185.61 50.91 185.61l93.59-99.62s16.49-40.07 22.34-57.79c5.86-17.72 22.92-49.58 27.78-85.59 4.85-36.01 24.14-87.15 13.76-136.34s-20.01-73.21-21.22-90.89c-1.21-17.68-32.76-30.95-32.76-30.95ZM101.25 1512.19h-.16a9.164 9.164 0 0 1-9.01-9.33c.07-4.32 7.3-432.71-2.99-509.21-10.48-77.87-6.44-304.88-6.26-314.51.09-5.06 4.27-9.03 9.34-9 5.07.09 9.1 4.27 9 9.34-.04 2.34-4.19 235.23 6.1 311.72 10.48 77.87 3.46 494.29 3.15 511.97a9.169 9.169 0 0 1-9.17 9.01Z" fill="#317a3d" class="fill-48694d"></path><path d="M469.11 604.97s14.04 12.46 10.15 25.32c-3.89 12.86-7.83 22.89-7.83 22.89s11.08 40.46 8.53 71.32c-2.55 30.86-16.75 100.31-51.92 161.44-35.17 61.13-93.39 150.48-161.01 182.57-67.62 32.09-94.1 44.97-133.23 39.85-39.12-5.11-75.13-2.43-72.06-62.44 3.07-60.01 5.05-106.92 62.18-194.49 57.13-87.56 143.98-135.95 174.75-155.07 30.77-19.12 91.22-44.26 109.3-46.54 18.08-2.27 49.56-7.21 49.56-7.21s2.09-13.95-.25-19.79-6.87-19.4 2.48-18.63l9.35.77Z" fill="#76ad43" class="fill-6f8757"></path><path d="M94.82 1405.82c-9.06-27.11-16.31-53.45-9.09-57.24 7.22-3.8 34.08-2.21 34.5 7.87.42 10.08-17.83 63.91-17.83 63.91l-7.59-14.54ZM96.31 878.03c8.24-23.8 18.4-32.85 9.37-37.44-9.04-4.59-14.32-1.18-14.32-1.18l4.95 38.62ZM94.92 712.2c5.75-16.47 16.86-29.37 14.88-35.81-1.98-6.44-24.89-10.21-24.94-2.06-.05 8.16 10.06 37.87 10.06 37.87ZM94.19 1494.76c-1.76 13.67 1.65 19.59 21.19 19.47 9.11-.05-13.8-30.19-13.44-57.65.36-27.46-7.75 38.17-7.75 38.17ZM444.55 680.41c-10.16 19.13-21.77 37.67-33.7 55.73-17.74 27.32-37.42 53.28-58.81 77.85-13.63 16.09-27.79 34.13-40.52 50.87-13.1 17.35-26.02 34.87-40.23 51.34-35.74 40.96-75.61 78.46-118.79 111.47-17.26 13.22-34.87 25.99-53.36 37.44l-.67-.91c64.77-57.33 128.95-114.83 187.92-178.03 18.6-19.62 36.27-40.17 51.96-62.2 9.16-12.63 18.53-27.45 27.28-40.36 9.01-13.49 18.58-26.58 28.25-39.6 16.16-21.74 32.37-43.31 49.72-64.24l.94.63ZM219.31 137.66c25.83 25.84 49.49 53.81 71.17 83.19 10.65 14.83 20.29 30.42 30.71 45.4 12.9 18.86 27.32 36.68 40.18 55.67 27.34 42.06 52.38 85.61 74.7 130.55 8.1 16.35 16.02 32.8 23.15 49.68l-.99.55c-10.57-14.97-20.38-30.36-30.04-45.84-24.05-38.27-46.04-79.02-66.83-119.16-11.76-24.5-26.45-47.8-43.26-69.17-11.23-14.34-23.62-27.78-35.23-41.81-11.59-14.05-22.44-28.66-33.27-43.31-10.71-14.75-21.36-29.54-31.17-45.03l.88-.71Z" fill="#317a3d" class="fill-48694d"></path><path d="M1013 508.6c-9.39-.77-47.1 24.76-47.1 24.76s24.57 93.29 28.37 128.09c3.8 34.8 8.49 52.17 57.65 42.96s80.57-32.62 77.83-66.8-16.61-54.96-16.61-54.96-47.71-20.38-61.92-34.29S1013 508.6 1013 508.6ZM898.78 696.28s42.19 123.44 47.7 140.35c5.51 16.92 17.63 51.36 9.09 57.23-8.54 5.86-68.06-33.09-76.52-21.24-8.46 11.84-59.97 36.26-63.51 23.43s12.53-138.34 12.63-153.04c.1-14.69 70.62-46.73 70.62-46.73Z" fill="#fffc31" class="fill-fbae3f"></path><path d="M1041.63 296.28c-16.67 8.04-73.98 63.57-74.59 82.36-.61 18.78 3.44 72.15 15.58 85.09 12.14 12.94-1.61 30.94-7.76 37.02-6.15 6.08-20.18 1.16-14.79 19.49 5.39 18.33 5.08 29.61 27.06 25.77 21.98-3.84 43.09-20.11 55.36-66.11 12.27-46 8.39-124.48 2.91-149.41-5.48-24.93-3.77-34.21-3.77-34.21ZM861.88 683.2c-16.06-3.21-70.7 4.81-95.47 23.5-24.77 18.68-102.7 73.14-106.32 94.19-3.62 21.04-15.85 55.19 22.7 59.62 38.55 4.44 41.73 11.6 50.76 1.05 9.03-10.55 70.45-55.08 75.33-60.95 4.88-5.87-17.93-10.9 23.94-8.7 41.88 2.2 89.33-32.8 91.49-58.99 2.16-26.19 9.61-32.85-8.18-45.43-17.79-12.58-54.26-4.29-54.26-4.29Z" fill="#ffe1d6" class="fill-fff0e1"></path><path d="M982.76 511.57c-16.31-28.54-35.4-66.9-54.59-59.34-19.2 7.56-36.84 20.37-22.23 44.35 14.61 23.98 18.58 60.04 31.15 56.09s45.68-41.1 45.68-41.1Z" fill="#ffe1d6" class="fill-fff0e1"></path><path d="M688.46 1381.11c-26.24 26.81-32.64 29.18-33.19 38.38s11.28 48.12 29.15 70.61c17.88 22.49 23.35 23.35 23.35 23.35s-2.59 23.35 6.05 37.77c8.65 14.42 19.03 24.8 19.03 24.8s2.81 5.98 3.68 9.88 5.41 31.79 4.97 37.84c-.43 6.05-1.3 15.14 1.51 15.35s-.65-10.6 3.68-9.73 7.35 5.62 8.87 4.54-3.89-10.81-4.97-12.33c-1.08-1.51-7.63-50.32-7.63-50.32s4.6 1.02 5.47-1.14c.86-2.16 2.59-24.22-8.87-43.46-11.46-19.25-21.19-28.11-21.19-28.11s3.46-5.62-1.95-13.19c-5.41-7.57-47.42-49.03-48.25-52.95-.83-3.92-3-9.11-2.35-10.63s23.14-7.57 32-14.27c8.87-6.7 7.57-23.57 7.57-23.57l-16.94-2.81ZM508.4 1270.54c-.73 2.92 4.32 5.77 28.54-4.61 24.22-10.38 26.81-13.55 33.16-19.61s20.98-8 20.98-8 1.37-6.84-3.97-6.7-22.63 10.24-28.69 17.16c-6.05 6.92-32.58 17.3-39.79 17.3s-9.37 1.01-10.24 4.47ZM462.7 1289.13c-.86 1.15 1.44 4.32 5.19 5.19s11.82 3.17 15.14 5.62c3.32 2.45 15.71 9.08 17.44 11.1s12.4 10.67 15.86 12.4 16.43 2.31 16.43 2.31 6.78 10.81 18.89 13.41c12.11 2.59 32.44.43 32.44.43s6.92 3.17 13.7 2.45 28.83-6.05 28.83-6.05l-11.68-20.9s-28.54 14.99-33.01 15.71-19.61-8.07-27.53-10.24c-7.93-2.16-18.16-1.44-18.16-1.44s-13.98-13.7-19.89-14.7c-5.91-1.01-10.52-.14-10.52-.14s-11.24-7.21-14.85-8.51c-3.6-1.3-6.25-2.79-6.25-2.79s-7.73-6.86-10.32-10.61-5.62-6.2-6.49-5.91c-.86.29 1.87 5.91 1.73 9.23s-6.92 3.46-6.92 3.46Z" fill="#631e13" class="fill-631e13"></path><path d="M666.83 1375.63c-12.11 6.92-22.9 10.79-31.35 23.27-8.44 12.48-13.34 56.02-12.48 59.76s.86 29.12 4.32 35.46c3.46 6.34 5.48 11.24 5.48 11.24s1.73 15.57.29 21.62c-1.44 6.05-9.8 12.69-9.23 15.57s2.02-3.17 5.48-.29c3.46 2.88 3.85 7.31 5.67 6.83s.67-12.02 1.54-14.61c.86-2.59 3.75-33.73 3.75-33.73s8.94-17.01 4.32-25.08c-4.61-8.07-9.8-15.57-9.8-15.57s7.5-8.65 7.5-11.53-3.75-40.08 1.44-45.27c5.19-5.19 8.07-2.31 16.72-4.61 8.65-2.31 29.07-21.57 29.07-21.57l-22.72-1.5Z" fill="#631e13" class="fill-631e13"></path><path d="M660.79 1363.8c-3.18 3.18-33.45 22.5-46.72 51.91-13.26 29.41-21.34 46.13-27.68 47.86-6.34 1.73-8.38-5.5-8.38-5.5s-.84 19.34-16.41 28.57-48.73 32-69.2 27.68c-20.47-4.32-17.88-11.53-17.88-11.53s-29.41 16.15-57.66 14.42-51.32 4.04-62.28-14.42c-10.96-18.45.29-30.27 24.07-52.04 23.79-21.77 77.42-53.48 143.73-75.97 66.31-22.49 109.57-39.8 109.57-39.8l28.83 28.83Z" fill="#ffe1d6" class="fill-fff0e1"></path><path d="M609.17 1298.94c0 25.95 6.27 42.17 15.57 45.84 9.3 3.68 15.57 4.32 17.3 6.05 1.73 1.73 3.24 12.76 11.24 20.76 8 8 20.76 14.27 33.95 16.22 13.19 1.95 11.68.86 11.68.86s-12.97 11.68-4.11 33.52c8.87 21.84 43.03 58.6 61.63 73.31 18.6 14.7 55.61 40.4 70.95 47.12 15.33 6.72 55.77 18.18 70.91 18.18s19.89-8.22 19.89-8.22l-286.74-286.74s-22.27 20.08-22.27 33.08Z" fill="#631e13" class="fill-631e13"></path><path d="M593.17 1227.58c-9.8 9.8-17.98 29.52-18.65 34.51-.67 4.99-9.46 8.88-6.87 17.82 2.59 8.94 12.25 17.44 21.62 18.45s24.8-3.75 32.58-10.67c7.78-6.92 16.29-15.14 16.29-15.14l-44.98-44.98Z" fill="#631e13" class="fill-631e13"></path><path d="M898.28 1560.8c15.14 0 19.89-8.22 19.89-8.22l-34.53-34.53s-23.25 19.51-42.1 29.83c18.64 6.17 45.12 12.92 56.73 12.92ZM765.39 1452.95c-16.08 13.61-24.02 14.87-35.55 17.29 4.71 5.05 9.43 9.82 13.88 14.06 5.02-1.26 11.47-3.58 19.42-7.76 21.91-11.53 42.96-36.04 42.96-36.04l-14.13-14.13s-7.78 10.67-26.58 26.58ZM768.81 1504.91c5 3.68 10.46 7.59 16.02 11.46 28.28-6.42 58.31-38.82 58.31-38.82l-14.27-14.27-18.63 17.33c-12.55 11.67-30.83 20.06-41.43 24.3ZM873.85 1508.26l-15.35-15.35c-11.23 11.23-42.71 29.72-53.12 37.19 6.65 4.23 12.75 7.87 17.63 10.41 3.66-1.5 8.09-3.47 13.44-6.08 25.3-12.33 37.41-26.16 37.41-26.17Z" fill="#fffc31" class="fill-fbae3f"></path><path d="M746.37 1323.19c26.81-26.24 29.18-32.64 38.38-33.19 9.2-.55 48.12 11.28 70.61 29.15 22.49 17.88 23.35 23.35 23.35 23.35s23.35-2.59 37.77 6.05c14.42 8.65 24.8 19.03 24.8 19.03s5.98 2.81 9.88 3.68c3.89.86 31.79 5.41 37.84 4.97 6.05-.43 15.14-1.3 15.35 1.51.22 2.81-10.6-.65-9.73 3.68s5.62 7.35 4.54 8.87c-1.08 1.51-10.81-3.89-12.33-4.97-1.51-1.08-50.32-7.63-50.32-7.63s1.02 4.6-1.14 5.47-24.22 2.59-43.46-8.87c-19.25-11.46-28.11-21.19-28.11-21.19s-5.62 3.46-13.19-1.95c-7.57-5.41-49.03-47.42-52.95-48.25-3.92-.83-9.11-3-10.63-2.35-1.51.65-7.57 23.14-14.27 32-6.7 8.87-23.57 7.57-23.57 7.57l-2.81-16.94ZM635.8 1143.14c2.92-.73 5.77 4.32-4.61 28.54-10.38 24.22-13.55 26.81-19.61 33.16-6.05 6.34-8 20.98-8 20.98s-6.84 1.37-6.7-3.97c.14-5.33 10.24-22.63 17.16-28.69 6.92-6.05 17.3-32.58 17.3-39.79 0-7.21 1.01-9.37 4.47-10.24ZM654.4 1097.44c1.15-.86 4.32 1.44 5.19 5.19s3.17 11.82 5.62 15.14c2.45 3.32 9.08 15.71 11.1 17.44s10.67 12.4 12.4 15.86c1.73 3.46 2.31 16.43 2.31 16.43s10.81 6.78 13.41 18.89.43 32.44.43 32.44 3.17 6.92 2.45 13.7c-.72 6.78-6.05 28.83-6.05 28.83l-20.9-11.68s14.99-28.54 15.71-33.01c.72-4.47-8.07-19.61-10.24-27.53-2.16-7.93-1.44-18.16-1.44-18.16s-13.7-13.98-14.7-19.89c-1.01-5.91-.14-10.52-.14-10.52s-7.21-11.24-8.51-14.85c-1.3-3.6-2.79-6.25-2.79-6.25s-6.86-7.73-10.61-10.32c-3.75-2.59-6.2-5.62-5.91-6.49s5.91 1.87 9.23 1.73c3.32-.14 3.46-6.92 3.46-6.92Z" fill="#631e13" class="fill-631e13"></path><path d="M740.9 1301.57c6.92-12.11 10.79-22.9 23.27-31.35 12.48-8.44 56.02-13.34 59.76-12.48s29.12.86 35.46 4.32c6.34 3.46 11.24 5.48 11.24 5.48s15.57 1.73 21.62.29c6.05-1.44 12.69-9.8 15.57-9.23s-3.17 2.02-.29 5.48c2.88 3.46 7.31 3.85 6.83 5.67s-12.02.67-14.61 1.54c-2.59.86-33.73 3.75-33.73 3.75s-17.01 8.94-25.08 4.32c-8.07-4.61-15.57-9.8-15.57-9.8s-8.65 7.5-11.53 7.5c-2.88 0-40.08-3.75-45.27 1.44-5.19 5.19-2.31 8.07-4.61 16.72s-21.57 29.07-21.57 29.07l-1.5-22.72Z" fill="#631e13" class="fill-631e13"></path><path d="M729.07 1295.52c3.18-3.18 22.5-33.45 51.91-46.72 29.41-13.26 46.13-21.34 47.86-27.68 1.73-6.34-5.5-8.38-5.5-8.38s19.34-.84 28.57-16.41 32-48.73 27.68-69.2c-4.32-20.47-11.53-17.88-11.53-17.88s16.15-29.41 14.42-57.66c-1.73-28.26 4.04-51.32-14.42-62.28-18.45-10.96-30.27.29-52.04 24.07-21.77 23.79-53.48 77.42-75.97 143.73-22.49 66.31-39.8 109.57-39.8 109.57l28.83 28.83Z" fill="#ffe1d6" class="fill-fff0e1"></path><path d="M664.2 1243.9c25.95 0 42.17 6.27 45.84 15.57 3.68 9.3 4.32 15.57 6.05 17.3s12.76 3.24 20.76 11.24c8 8 14.27 20.76 16.22 33.95 1.95 13.19.86 11.68.86 11.68s11.68-12.97 33.52-4.11c21.84 8.87 58.6 43.03 73.31 61.63 14.7 18.6 40.4 55.61 47.12 70.95 6.72 15.33 18.18 55.77 18.18 70.91 0 15.14-8.22 19.89-8.22 19.89L631.1 1266.17s20.08-22.27 33.08-22.27Z" fill="#631e13" class="fill-631e13"></path><path d="M592.84 1227.9c9.8-9.8 29.52-17.98 34.51-18.65 4.99-.67 8.88-9.46 17.82-6.87 8.94 2.59 17.44 12.25 18.45 21.62 1.01 9.37-3.75 24.8-10.67 32.58-6.92 7.78-15.14 16.29-15.14 16.29l-44.98-44.98Z" fill="#631e13" class="fill-631e13"></path><path d="M926.07 1533.02c0 15.14-8.22 19.89-8.22 19.89l-34.53-34.53s19.51-23.25 29.83-42.1c6.17 18.64 12.92 45.12 12.92 56.73ZM818.22 1400.12c13.61-16.08 14.87-24.02 17.29-35.55 5.05 4.71 9.82 9.43 14.06 13.88-1.26 5.02-3.58 11.47-7.76 19.42-11.53 21.91-36.04 42.96-36.04 42.96l-14.13-14.13s10.67-7.78 26.58-26.58ZM870.17 1403.54c3.68 5 7.59 10.46 11.46 16.02-6.42 28.28-38.82 58.31-38.82 58.31l-14.27-14.27 17.33-18.63c11.67-12.55 20.06-30.83 24.3-41.43ZM873.52 1508.58l-15.35-15.35c11.23-11.23 29.72-42.71 37.19-53.12 4.23 6.65 7.87 12.75 10.41 17.63-1.5 3.66-3.47 8.09-6.08 13.44-12.33 25.3-26.16 37.41-26.17 37.41Z" fill="#fffc31" class="fill-fbae3f"></path></svg>