<svg viewBox="0 0 1224 1728" xmlns="http://www.w3.org/2000/svg"><path d="M408.83 145.82s-4.32 2.65-9.92 7.78c-6.51 5.97-14.76 15.3-19.98 27.73-9.71 23.12-15.45 51.07-15.45 51.07l3.81 7.77s6.99-29.12 13.59-47.76c6.6-18.64 27.96-46.59 27.96-46.59Z" fill="#2a7a43" class="fill-3e6a4b"></path><path d="M480.01 320.41s-16.83-4.66-28.99 6.21c-12.17 10.87-9.84 37.79-9.84 37.79s2.33 6 6.21 6.88c3.88.88 21.74-7.66 27.18-20.6 5.44-12.94 5.44-30.29 5.44-30.29ZM462.67 380.6s9.32-23.94 34.43-27.31c25.11-3.37 65.49 29.77 65.49 29.77s-23.56 20.47-50.74 21.5c-27.18 1.02-40.06-9.07-41-9.85s-8.19-14.11-8.19-14.11Z" fill="#6db543" class="fill-678852"></path><path d="M397.44 1025.8s-20.97 19.93-8.8 58.76c12.17 38.83 41.68 55.66 41.68 55.66s31.06-39.35 23.3-84.13c-7.77-44.78-30.29-37.98-30.29-37.98l-25.89 7.69ZM729.81 902.19s146.12-18.5 251.74 54.24c25.51 17.57 43.57 39.88 56.28 63.62l-3.09 4.46s-14.37-52.42-107.94-91.64c0 0-14.9-10.48-42.98-16.7-28.08-6.21-96.41-13.59-104.18-13.2-7.77.39-52.03 3.11-52.03 3.11l2.2-3.88Z" fill="#2a7a43" class="fill-3e6a4b"></path><path d="m790.32 901.61 35.14 24.85-2.33 2.33-37.28-27.18h4.47zM331.56 125.24l-2.42 67.17 11.74 6.6s-3.88-38.44-4.27-45.43c-.39-6.99 1.85-25.24-1.6-26.79l-3.45-1.55ZM298.56 226.19c-1.94-1.94-36.89-41.16-59.02-49.7-22.13-8.54-23.69-8.93-24.46-6.99s24.46 13.2 31.45 18.64c6.99 5.44 43.1 49.31 43.88 48.15.78-1.16 8.15-10.1 8.15-10.1Z" fill="#2a7a43" class="fill-3e6a4b"></path><path d="M555.79 165.88s8.15 1.68 17.67 8.28c9.51 6.6 16.11 30.67 16.11 30.67s3.17 43.36 0 45.95c-3.17 2.59-16.19 9.32-16.19 9.32s-16.67-15.53-16.84-19.93-6.03-58.84-6.03-58.84l5.28-15.45Z" fill="#ff7551" class="fill-ff7551"></path><path d="M576.05 157.59s21.23 44.52 24.85 54.36c3.62 9.84 2.07 39.35 2.07 39.35l-17.6 12.94.13 5.24s15.34 5.82 12.81 18.06c-2.52 12.23-15.53 17.47-15.53 17.47s3.3 32.62.58 53.78c-2.72 21.16-10.48 47.76-10.48 47.76l-11.84 18.64-2.33-4.08s6.21-7.18 11.65-22.13 8.54-36.89 9.32-48.34-2.52-45.62-2.52-45.62-21.16-5.82-20-19.22c1.16-13.4 8.35-14.56 8.35-14.56l.58-5.63-10.29-7.38 1.55-37.28s13.4 21.16 14.75 24.66c1.36 3.49 2.33 5.82 4.27 5.44s3.88-12.04 6.6-25.63c2.72-13.59 6.6-20.58 6.6-20.58s-.19-12.81-6.6-24.07c-6.41-11.26-6.92-23.17-6.92-23.17Z" fill="#6db543" class="fill-678852"></path><path d="M651.12 941.41s-56.43 75.07-64.2 162.56c-7.77 87.49-6.21 122.18-6.21 122.18l4.66-2.59s1.55-103.02 11.91-147.03c10.35-44.01 30.03-91.64 42.45-108.72 12.43-17.08 16.57-22.78 16.57-22.78l-5.18-3.62Z" fill="#2a7a43" class="fill-3e6a4b"></path><path d="M621.87 969.63s-8.28 35.98 8.54 49.18c16.83 13.2 61.87 5.44 68.86 0 6.99-5.44 30.55-27.7 30.55-27.7s-9.44-19.67-20.51-25.11-28.67-13.55-28.67-13.55-45.82 4.75-50.99 8.63c-5.18 3.88-7.77 8.54-7.77 8.54Z" fill="#6db543" class="fill-678852"></path><path d="M434.2 1012.86s-89.05 23.81-126.84 49.7c-37.79 25.89-103.02 79.73-103.02 79.73l-15.35 9.84 5.51 2.59s61.87-49.44 67.04-54.88c5.18-5.44 66.1-42.96 93.45-56.95 27.35-13.99 79.21-26.66 79.21-26.66v-3.37Z" fill="#2a7a43" class="fill-3e6a4b"></path><path d="M298.26 923.55s-20.67 31.06-11.61 75.84c9.06 44.78 48.66 43.75 54.62 41.68 5.95-2.07 20.19-26.66 19.93-48.15-.26-21.49-10.61-50.74-11.13-53.07-.52-2.33-30.03-35.2-30.03-35.2l-21.78 18.9ZM376.99 954.87s-4.92 32.36 0 43.23c4.92 10.87 10.61 18.64 19.93 19.93 9.32 1.29 30.8-14.75 30.8-14.75l11.65-31.84-2.59-18.98h-54.62l-5.18 2.42Z" fill="#6db543" class="fill-678852"></path><path d="M803.84 747.79s-50.89 37.43-66.71 74.54c-15.82 37.11-27.84 64.73-27.84 64.73l10.16 2.58s14.5-60.05 39.86-90.08c25.37-30.03 47.63-45.56 47.63-45.56l-3.11-6.21Z" fill="#2a7a43" class="fill-3e6a4b"></path><path d="M284.58 160.18c-3.88 9.32 0 48.33 0 48.33s2.84 36.63 4.27 42.53c1.43 5.9 5.44 15.92 6.6 18.25 1.16 2.33 14.94 7.77 14.94 7.77l16.96 2.72s23.62-2.33 25.56-3.11c1.94-.78 13.2-13.59 13.2-13.59l9.32-15.53s-7.77-36.89-34.17-61.74c-26.4-24.85-25.64-27.18-30.88-34.17-5.23-6.99-.57-7.77-9.89-8.93-9.32-1.16-17.82 4.66-17.65 8.93.17 4.27 1.73 8.54 1.73 8.54Z" fill="#d00000" class="fill-e94d43"></path><path d="M449.6 171.25c-.39-4.08-10.68-50.67-1.55-59.8 9.12-9.12 16.31-3.49 16.31-3.49s9.51-7.18 17.08-7.18 20.77 3.49 22.13 4.08c1.36.58 16.31 17.67 27.96 38.44 11.65 20.77 15.73 68.53 13.78 93.96-1.94 25.43-14.37 42.52-14.37 42.52l-17.86 4.27-52.22-77.27-11.26-35.53Z" fill="#ff7551" class="fill-ff7551"></path><path d="M441.45 136.11s-19.41 17.86-12.43 57.27c6.99 39.41 6.02 46.01 12.43 57.66 6.41 11.65 24.07 23.3 28.15 25.82s13.2 3.3 18.06 3.69c4.85.39 17.86.78 19.22 0s7.34-5.24 7.34-5.24l-7.38-69.94-20.73-32.76s-5.44-12.43-18.83-22.52c-13.4-10.1-17.86-14.75-25.82-13.98ZM501.05 82.91c-9.39-1.06-10.1 31.26-10.1 31.26s40.58 140.36 40.38 142.11-.39 23.49-.39 23.49l6.6-2.52 13.2-7.96 5.05-39.41s2.72-73.77 2.72-74.36-38.63-70.47-57.47-72.61Z" fill="#d00000" class="fill-e94d43"></path><path d="m990.22 578.49 25.89-13.98 36.76-5.44s27.48 5.65 29.51 13.2c2.03 7.55-5.11 29.88-11.13 35.98s-30.67 7.68-32.05 8.17c-1.38.49-21.28-.12-24.9 0-3.62.12-18.38-2.99-18.38-2.99s-9.32-3.37-10.61-4.92c-1.29-1.55-4.92-15.27-4.92-15.27l3.88-8.03 5.95-6.73Z" fill="#ff7551" class="fill-ff7551"></path><path d="M980.77 611.37s27.96 11.59 53.58 11.04 86.98-76.66 86.98-76.66-19.54 14.11-32.23 28.6c-12.68 14.5-22.52 28.47-33.91 34.43-11.39 5.95-46.65 4.92-52.29 3.37-5.64-1.55-13.46-5.44-13.46-5.44s11.13 4.92 26.92-1.81c15.79-6.73 28.22-12.94 34.69-14.75 6.47-1.81 14.5-2.07 14.5-2.07s-.78-2.33-6.21-2.59-18.9-.26-18.9-.26-12.94 3.37-19.16 4.14c-6.21.78-14.56.55-22.12 2.33-7.56 1.78-14.63 4.66-14.63 4.66s15.01-19.16 22.52-23.56c7.51-4.4 26.14-9.06 40.38-11.13 14.24-2.07 27.96-5.44 27.96-5.44s22.26-11.39 25.37-14.75c3.11-3.37 6.47-9.06 6.47-9.06s-2.59 2.33-6.73 4.92c-4.14 2.59-7.77 9.32-18.9 11.91-11.13 2.59-37.53 8.02-43.49 8.8-5.95.78-17.45-1.88-35.72 7.77-18.27 9.64-28.73 20.97-32.1 25.37-3.37 4.4 10.48 20.19 10.48 20.19Z" fill="#2a7a43" class="fill-3e6a4b"></path><path d="m1033.71 618.36 28.47-2.59s39.09-18.12 42.97-18.64c3.88-.52 34.69 0 33.91-1.29s-33.13-3.62-39.35-2.07-46.85 17.86-46.85 17.86l-19.16 6.73ZM739.55 1639.49l31.53-94.58 10.51-21.02s-27.44-26.46-24.86-27.5c2.59-1.04 27.96 9.84 27.96 9.84l8.28-40.38-4.66-41.93h-12.43l11.91-8.28-18.12-114.41-24.33-5.18 20.92-3.62-7.46-55.4-6.73-10.35-18.12 4.14 12.43-11.39s-19.67-48.66-22.78-68.86-7.25-53.84-7.25-53.84-1.55-107.17 0-112.6c1.55-5.44 21.74-91.64 21.74-91.64s-.78-43.49-.78-55.91-.78-41.93-1.55-46.59c-.78-4.66-24.07-88.53-24.07-88.53l-88.53-152.21-31.06-47.37-13.98 9.32 6.6-13.98.78-6.21-7.38-5.44s-13.2-1.16-20.97-3.11-24.46-6.21-26.79-6.6c-2.33-.39-5.44-1.16-20.58 0-15.14 1.16-144.44 58.24-144.44 58.24l-91.25 34.17-1.94-3.49 73-26.4L489.2 478.2s16.31-5.05 17.86-5.82c1.55-.78 33 .39 33.78-2.33.78-2.72-32.62-27.96-32.62-27.96l-23.3-18.25-58.24-37.28h-28.73l23.69-3.88-41.93-48.15-16.7-22.52s-22.91-1.55-25.24-11.26c-2.33-9.71-1.94-14.75-1.94-14.75s-19.03-1.16-28.73-4.66c-9.71-3.49-27.96-20.97-33.39-26.02s-16.7-18.64-24.85-21.36c-8.15-2.72-53.58-14.37-59.41-14.37s45.04 5.05 62.9 10.1 37.28 27.96 45.82 34.17c8.54 6.21 20.97 10.1 20.97 10.1l-16.31-35.33s14.37 6.21 19.41 10.48c5.05 4.27 15.53 17.08 19.8 16.7 4.27-.39-4.27-45.04-3.49-50.87.78-5.82 1.16-11.65 1.16-11.65l12.43 25.63 15.53 26.79 5.82-13.59s13.2-21.36 18.64-25.24l-10.48 25.24s-7.77 22.91-8.15 26.4c-.39 3.49 3.88 12.04 4.27 19.03.39 6.99-7.77 22.13-7.77 22.13l42.71 53.58 17.86 17.47 85.03 57.08s27.57 19.03 30.67 21.74c3.11 2.72 20.97 12.04 24.46 12.04s5.44-1.55 5.44-1.55l-19.41-43.49-14.75-32.62s-18.25-47.37-19.03-49.31c-.78-1.94-2.72-22.13-2.72-22.13s-20.19-9.32-24.46-16.7c-4.27-7.38-4.83-19.03-4.83-19.03s-7.21-1.94-16.53-1.94-27.18-3.88-35.72-9.32-58.63-3.11-58.24-4.27c.39-1.16 49.31-5.05 53.19-4.27 3.88.78 19.41 4.27 26.4 6.21s26.85 3.88 30.9 3.88 14.14-1.16 14.14-1.16 5.05-45.43-.39-61.35-13.2-36.5-18.64-41.93c-5.44-5.44 8.15 5.05 17.08 23.69 8.93 18.64 12.81 50.87 13.98 57.08 1.16 6.21 3.11 17.47 5.05 19.41 1.94 1.94 17.47 2.72 23.3-1.94 5.82-4.66 9.71-36.5 5.05-62.9-4.66-26.4 8.54-62.9 8.54-62.9s27.57-29.12 29.12-27.57c1.55 1.55-20.97 24.46-24.46 37.28-3.49 12.81-.39 71.06-.39 71.06s3.49 27.57.39 33.39c-3.11 5.82-12.04 13.2-12.04 13.2l-10.87 5.05s5.82 15.14 2.72 24.85c-3.11 9.71-15.14 16.7-15.14 16.7s.78 22.52 1.16 25.24c.39 2.72 20.58 49.7 20.58 49.7l40.38 86.98 39.6 66.01s89.82 148.58 90.34 150.14 17.08 68.34 17.08 68.34l8.28 49.7-.52 71.44s-2.59 30.55-4.14 37.28c-1.55 6.73-14.5 68.34-15.01 72.48-.52 4.14 1.04 96.29 1.04 104.06s15.53 81.28 15.53 81.28 18.64 35.2 19.67 36.76c1.04 1.55 4.66-48.66 4.14-64.2-.52-15.53 0-21.74 0-21.74l-34.17-85.42s-22.78-120.11-23.3-147.03c-.52-26.92 7.77-112.86 7.77-112.86l24.33-60.57 8.28 7.77s-21.23 33.65-23.3 57.98-6.73 93.71-6.73 97.33-.52 33.13-.52 33.13l17.6 98.88s20.71 62.64 22.26 64.71 16.57 40.38 16.57 40.38 22.78-14.5 24.85-15.53c2.07-1.04 35.72-37.79 35.72-37.79l3.49 1.55s-28.34 34.95-29.51 35.72c-1.16.78-14.37 10.48-14.37 10.48l-15.53 12.04s-3.49 24.07-1.55 23.69 20.19 3.11 20.19 3.11l-19.41 2.72s-4.66 59.41-4.66 63.68 3.11 56.69 3.11 56.69l17.08 91.64 25.63 2.72-22.52 4.27 6.6 43.1 19.41 1.16-17.86 4.27 6.99 33.39s5.82 2.72 5.44 11.65c-.39 8.93-19.8 52.03-19.8 52.03l-4.66 22.52 23.3 16.7-25.24-5.44s-8.15 11.65-10.87 25.63c-2.72 13.98-7.38 39.22-7.38 40.77s-3.88 15.92-13.98 17.08c-10.1 1.16-19.41 0-19.41 0l-.87-5.1Z" fill="#2a7a43" class="fill-3e6a4b"></path><path d="M679.59 276.67s-29.17 29.9-30.57 50.87c-1.4 20.97-3.34 26.79 4.81 35.33 8.15 8.54 17.86 9.71 17.86 9.71s26.02 6.21 34.56-33.78c4.72-22.12-8.37-48.16-21.01-67.02l-5.65 4.89Z" fill="#2a7a43" class="fill-3e6a4b"></path><path d="M562.59 431.98s17.47-24.07 27.18-31.84 43.49-21.74 52.81-24.07c9.32-2.33 41.7-4.76 41.7-4.76l19.26 3.6v4.66s-15.53-4.27-32.23-2.33c-16.7 1.94-51.25 12.81-51.25 12.81s-24.07 12.81-28.73 15.92c-4.66 3.11-25.63 31.84-25.63 31.84l-3.11-5.82Z" fill="#2a7a43" class="fill-3e6a4b"></path><path d="M738.35 351.22c19.41.26 44.01 25.11 53.07 34.69 9.06 9.58 16.83 47.11 12.68 49.18-4.14 2.07-54.1 3.62-68.08-2.07-13.98-5.69-34.69-22.24-35.72-28.46-1.04-6.22.5-25.64.5-25.64s3.38-16.05 17.62-23.04c14.24-6.99 19.93-4.66 19.93-4.66Z" fill="#6db543" class="fill-678852"></path><path d="M660.44 376.33c-.78 0-21.87-1.29-27.37 22.26-5.5 23.56 2.02 33.91 14.7 44.26 12.68 10.35 20.7 20.71 20.7 20.71s9.06-18.64 10.1-22c1.04-3.37 8.8-10.1 12.68-23.3 3.88-13.2 2.33-30.8-3.11-35.46-5.44-4.66-13.46-7.77-15.53-7.77s-12.17 1.29-12.17 1.29ZM626.01 344.49s-18.64 10.35-28.73 23.56c-10.1 13.2-17.08 27.44-17.73 33.91-.65 6.47-2.98 14.75-2.98 14.75l8.8-9.84s16.45-12.73 17.93-12.97.19.54 2.52-10.07 2.33-13.2 7.77-20.19c5.44-6.99 9.32-7.25 11.39-11.39 2.07-4.14 1.04-7.77 1.04-7.77ZM311.76 380.99s-7.77 73.52 13.72 101.21c21.49 27.7 67.04 23.3 67.04 23.3s11.91-2.85 14.24-6.47 17.6-17.34 4.66-52.55c-12.94-35.2-55.4-53.84-68.6-57.72s-31.06-7.77-31.06-7.77Z" fill="#2a7a43" class="fill-3e6a4b"></path><path d="m391.23 485.82 13.11 31.33 1.9-2.59-11.39-28.74h-3.62zM321.59 533.45s15.79-17.86-4.92-53.32-55.65-46.59-70.41-46.59-46.08-2.33-47.11 0c-1.04 2.33 7.51 69.89 17.6 85.16 10.1 15.27 22.52 26.14 34.95 30.29 12.43 4.14 28.47 3.37 34.17 2.85 5.69-.52 25.89-8.02 29.25-10.87 3.37-2.85 6.47-7.51 6.47-7.51Z" fill="#2a7a43" class="fill-3e6a4b"></path><path d="m283.8 526.98 30.55 25.27 4.73-.83-30.36-26.25-4.92 1.81z" fill="#2a7a43" class="fill-3e6a4b"></path><path d="M117.62 620.43c1.04-1.55 21.23-55.14 47.11-76.1 25.89-20.97 89.03-6.99 98.48-3.88 9.46 3.11 20.52 19.32 22.76 23.38 2.23 4.06.16 49.62-27.53 67.48-27.7 17.86-61.35 26.92-88.27 14.75-26.92-12.17-39.09-15.01-42.71-16.57s-12.68-6.99-12.68-6.99l2.85-2.07Z" fill="#6db543" class="fill-678852"></path><path d="M339.46 550.8c-15.24-1.29-46.08 15.99-57.72 41.52-11.65 25.53-10.61 57.37-4.92 72.9 5.69 15.53 27.44 38.57 28.22 39.35l3.88 3.88s59.54-23.88 65.75-78.86c6.21-54.97-4.66-64.81-14.24-72.83s-20.97-5.95-20.97-5.95Z" fill="#2a7a43" class="fill-3e6a4b"></path><path d="m353.82 534.75-15.66 29.77 7.83-2.33 10.81-27.44h-2.98zM407.28 521.29c-3.62 0-29.51 5.89-23.3 71.02 6.21 65.13 62.38 68.24 62.38 68.24s33.91-26.66 22.52-84.9c-11.39-58.24-61.61-54.36-61.61-54.36ZM468.73 486.74l13.61 19.01 1.04-4.27-12.45-15.66-2.2.92z" fill="#2a7a43" class="fill-3e6a4b"></path><path d="M474.32 499.54c-5.95 9.58-22.52 43.75 9.06 77.66s72.42 27.18 72.42 27.18 13.27-43.75-8.22-79.21c-21.49-35.46-52.81-35.46-58.76-34.43-5.95 1.04-14.5 8.8-14.5 8.8ZM411.94 512.23l-1.3 18.38h-3.11l1.3-18.38h3.11z" fill="#2a7a43" class="fill-3e6a4b"></path><path d="M471.22 666.51c-19.68 3.49-18.13 10.48-27.45 25.24-9.32 14.75-26.79 33-26.4 66.78.39 33.78 7.77 51.64 7.77 51.64s-39.99-2.33-58.63 0-57.08 36.11-63.29 61.35c-6.21 25.24-6.99 41.93 0 57.47 6.99 15.53 22.91 18.98 29.51 23.47 6.6 4.49 12.04 20.79 28.73 24.29 16.7 3.49 18.64 6.6 31.06 5.05 12.43-1.55 18.25-1.16 26.4-6.21 8.15-5.05 12.04-9.32 14.37-9.32s-14.75 16.31-12.43 34.95c2.33 18.64 13.2 47.37 27.96 61.74s35.72 22.91 40.38 20.97c4.66-1.94 7.38-8.54 13.59-9.71 6.21-1.16 28.73 1.94 41.55-1.94 12.81-3.88 47.76-36.5 55.14-50.87 7.38-14.37 12.81-19.41 10.87-31.45-1.94-12.04-10.87-28.34-10.87-28.34l-5.44-19.03s.97-2.72 2.52 0 15.73 41.16 15.73 41.16 8.93 12.04 17.47 14.56c0 0 23.69 2.52 42.32-3.69 18.64-6.21 45.43-23.69 58.24-34.95 12.81-11.26 22.13-38.63 17.86-48.15-4.27-9.52-8.15-31.84-20.19-44.65-12.04-12.81-14.37-18.64-25.24-21.36-10.87-2.72-6.99-5.05-20.19-3.49-13.2 1.55-48.15 18.25-46.59 15.14 1.55-3.11 8.15-3.11 17.08-8.54 8.93-5.44 29.9-10.87 42.32-18.64 12.43-7.77 28.95-27.19 30.8-37.66 1.85-10.47 7.25-52.03-13.33-73.39s-19.03-17.86-28.73-25.63c-9.71-7.77-5.69-34.95-39.15-34.56-33.46.39-45.5-1.94-59.86 14.37-14.37 16.31-22.13 32.62-27.57 43.49-5.44 10.87-6.99 20.19-8.15 30.29-1.16 10.1-6.6 13.59-6.6 13.59s5.44-31.84 4.27-39.6c-1.16-7.77 6.6-7.77-8.15-18.25s-15.53-8.93-26.79-20.58c-11.26-11.65-11.26-13.98-18.25-16.31-6.99-2.33-22.64.78-22.64.78Z" fill="#d00000" class="fill-e94d43"></path><path d="M586.66 849s3.88.78 5.82 4.66c1.94 3.88-2.72 10.48-3.11 11.65s-1.16 9.71-8.15 15.95c-6.99 6.25-6.6 7.73-6.6 7.73s-.39 2.33-2.72 8.54c-2.33 6.21-8.93 3.88-8.93 3.88s5.05 11.65 1.94 13.98-8.54 0-13.98-1.16c-5.44-1.16-15.92-1.16-22.52-2.72-6.6-1.55-12.81 3.49-14.21 5.82-1.4 2.33-6.37 5.05-9.86 4.27-3.49-.78-8.54-6.6-9.71-7.38s-10.48 1.16-19.66-4.27c-9.18-5.44-9.07-29.9-9.07-31.84s-4.66-5.82-5.82-12.81 6.99-12.81 10.48-17.08c3.49-4.27-.39-7.38 0-14.75.39-7.38 5.82-8.15 19.41-4.27 0 0-.78-12.81 4.27-13.98 5.05-1.16 14.37 9.32 15.92 7.77s.31-14.75 4.04-16.7c3.73-1.94 10.3 6.6 12.25 7.38s4.67-3.88 8.17-9.71c3.49-5.82 5.82-8.15 8.15-8.54s5.82 12.43 5.82 16.31 6.21 2.33 9.32-.78c3.11-3.11 8.15-5.82 10.87-4.27 2.72 1.55 4.27 8.54 2.72 10.48-1.55 1.94-1.55 8.54-.78 9.71s10.87-.39 13.59 1.55c2.72 1.94 2.33 6.6-.39 8.54-2.72 1.94-2.72 5.63-2.72 5.63s3.69-2.33 5.82.39c2.14 2.72-.39 6.02-.39 6.02Z" fill="#fffc31" class="fill-fbc15e"></path><path d="M523.75 851.33c-8.92 7.38-5.42 13.59-5.42 16.7s3.08 8.93 5.42 9.32 13.6-2.17 15.93-3.02c2.33-.86 8.93-9.4 6.99-13.67-1.94-4.27-1.16-6.21-6.21-9.32-5.05-3.11-11.26-3.88-12.43-3.49s-4.28 3.49-4.28 3.49ZM605.3 1041.85s-2.59 25.11 4.66 38.05c7.25 12.94 19.93 23.56 51.51 29.25 31.58 5.69 78.43-18.12 78.43-18.12s-2.33-8.02-11.13-21.23c-8.8-13.2-24.07-33.39-32.87-37.02s-44.97-13.53-53.58-12.68c-8.61.85-34.95 14.24-34.95 14.24l-2.07 7.51Z" fill="#2a7a43" class="fill-3e6a4b"></path><path d="M567.77 1020.05c.78.05 42.19 5.75 33.91 29.82-8.28 24.07-38.05 27.44-49.7 24.07-11.65-3.37-42.71-33.65-42.71-33.65l58.5-20.24Z" fill="#6db543" class="fill-678852"></path><path d="M580.58 1107.98c-8.42-8.67-35.08-21.87-58.12-21.36-23.04.52-42.45 24.33-48.41 30.03-5.95 5.69-29.25 53.84-28.73 56.43s57.72 10.61 71.96 10.1c14.24-.52 38.31-9.58 46.59-15.27 8.28-5.69 19.68-22.92 20.75-36.32 1.07-13.4-4.05-23.61-4.05-23.61ZM582.78 1193.54s-39.6 6.47-51.25 50.48c-11.65 44.01 9.84 79.99 19.41 94.48 9.58 14.5 24.59 28.47 28.47 28.22 3.88-.26 38.31-36.76 45.56-52.55s12.43-42.97 7.51-64.2c-4.92-21.23-18.64-44.01-27.18-49.7-8.54-5.69-22.52-6.73-22.52-6.73ZM588.22 1125.2s10.99-25.53 58.3-19.49c47.31 6.03 73.97 66.35 74.75 68.42.78 2.07-59.8 23.3-90.08 14.5-30.29-8.8-47.25-28.22-46.41-34.95.85-6.73 3.44-28.47 3.44-28.47Z" fill="#2a7a43" class="fill-3e6a4b"></path><path d="M173.79 986.45s-6.21 52.81 22.52 83.35c28.73 30.55 66.78 19.13 70.67 16.81 3.88-2.31 18.38-22.51-4.66-62.11-23.04-39.6-88.53-38.05-88.53-38.05Z" fill="#6db543" class="fill-678852"></path><path d="M210.64 1141.76s-37.37-32.35-85.26 5.45C77.49 1185 81.12 1263.7 81.12 1263.7s61.35 2.85 105.87-40.12 23.65-81.81 23.65-81.81ZM260.5 1081.19l9.07 12.68 2.84-3.25-13.98-15.38 2.07 5.95zM272.41 1094.65c-14.75 13.98-35.98 22.78-37.28 60.05-1.29 37.28 34.95 91.12 34.95 91.12s41.16-25.37 46.08-77.14c4.92-51.77-7.84-69.89-17.9-72.22s-25.85-1.81-25.85-1.81Z" fill="#2a7a43" class="fill-3e6a4b"></path><path d="m280.9 1081.71-5.85 20.71h-3.93l5.06-17.14 4.72-3.57zM336.87 1027.35l1.13 24.76 3.41-1.92v-24.39l-4.54 1.55z" fill="#2a7a43" class="fill-3e6a4b"></path><path d="M333.5 1050.13s-24.85 17.6-14.24 76.62c10.61 59.02 54.1 64.71 54.1 64.71s26.92-39.86 18.9-85.94c-8.02-46.08-40.36-61.04-40.36-61.04l-18.4 5.65ZM401.32 1005.87c-.26 1.29 0 17.86 0 17.86h3.37v-17.86h-3.37ZM922.14 812.5s-52.81 12.81-62.13 43.1 7.11 53.97 7.11 53.97 34.82 5.12 53.46-28.31 10.1-73.81 10.1-73.81l-8.54 5.05Z" fill="#2a7a43" class="fill-3e6a4b"></path><path d="M869.3 913.41s-35.43-3.84-56.14 21.27-21.74 71.96-21.74 71.96 38.31 2.59 75.07-35.46c36.76-38.05 7.17-57.01 7.17-57.01l-4.35-.76Z" fill="#6db543" class="fill-678852"></path><path d="M1053.64 825.44c-1.55 0-77.92.26-105.35 25.11-27.44 24.85-19.67 78.24-19.67 78.24s42.71 20 90.6-13.59c47.89-33.59 34.43-89.76 34.43-89.76ZM926.8 932.87l-11.91 23.56 5.96 1.55 10.24-23.28-4.29-1.83z" fill="#2a7a43" class="fill-3e6a4b"></path><path d="M922.99 946.59s-29.32-9.02-50.55 13.35c-21.23 22.37 3.37 112.97 3.37 112.97s68.08-31.06 69.89-72.74c1.81-41.68-18.1-57.54-18.1-57.54l-4.61 3.95Z" fill="#2a7a43" class="fill-3e6a4b"></path><path d="M989.18 965.23s-45.3 8.54-53.58 49.7c-8.28 41.16 26.79 113.12 26.79 113.12s56.93-32.37 59.15-81.41c2.22-49.04-5.7-59.3-8.68-62.56s-23.68-18.85-23.68-18.85Z" fill="#2a7a43" class="fill-3e6a4b"></path><path d="M1142.95 908.79c-.78 0-38.83-23.04-96.29-4.14-57.47 18.9-48.66 61.87-48.66 61.87s-4.4 22.52 37.79 23.81c42.19 1.29 83.87-16.83 93.45-36.76 9.58-19.93 13.72-44.78 13.72-44.78Z" fill="#2a7a43" class="fill-3e6a4b"></path><path d="M1030.34 1010.01s-30.03 47.63-8.42 91.38c21.62 43.75 92.28 49.7 92.28 49.7s19.16-48.41 7.51-83.09c-11.65-34.69-16.57-45.56-45.04-54.36-28.47-8.8-46.34-3.62-46.34-3.62Z" fill="#6db543" class="fill-678852"></path><path d="M686.39 520.61c-17.54-1.23-30.61.81-30.61.81s-23.3 10.22-29.51 19.03c-6.21 8.8-6.21 35.2-8.93 45.69-2.72 10.48-8.15 22.91-8.15 22.91l31.06 13.59 103.28 50.48 35.72 64.46s28.34 43.1 34.95 45.04c6.6 1.94 44.26-3.49 53.97-11.26s15.53-10.87 18.64-11.26c3.11-.39 21.01 1.55 40.79-1.94 19.78-3.49 43.47-14.37 52.79-30.67 9.32-16.31 14.75-24.46 14.75-30.67s6.68-17.47-3.65-22.52c-10.33-5.05 14.5-34.95 5.77-63.68-8.73-28.73-15.33-39.22-15.33-39.22s1.94-39.99-21.74-63.68c-23.69-23.69-52.81-24.85-62.13-21.36-9.32 3.49-27.96 29.51-27.96 29.51s6.99-41.93-12.81-59.8-20.6-30.1-36.89-33c-16.29-2.9-39.61-3.67-47.37 5.05-7.76 8.72-8.93 31.84-8.93 31.84s-15.14-26.4-42.32-11.65c-27.18 14.75-33 26.79-37.28 34.95-4.27 8.15-9.36 17.86-7.01 24.46 2.35 6.6 6.62 7.38 6.62 7.38l2.27 5.53Z" fill="#d00000" class="fill-e94d43"></path><path d="M755.18 597.39c.78-2.33 2.72-11.65 5.44-8.93s5.05 5.82 6.79 5.05 1.36-14.37 4.08-17.67c2.72-3.3 2.14 4.27 4.08 6.41 1.94 2.14 3.88-3.69 8.54-8.15 4.66-4.47 3.49-6.99 7.18-6.21s-.19 15.14 3.49 15.53c3.69.39 5.96-4.85 9.39-6.02 3.43-1.16 11.58-11.34 14.3-9.65 2.72 1.69-.58 14.57 2.14 14.73 2.72.16 4.47-7.6 6.79-6.44 2.33 1.16 2.91 10.29 3.3 12.04.39 1.75 5.63-1.36 8.74 1.16 3.11 2.52-3.88 12.04-2.52 14.75s5.63-6.79 11.84-3.3-2.91 10.48-2.52 16.5 5.63 0 7.18 4.85c1.55 4.85-7.77 3.49-7.18 6.99.58 3.49 3.49 2.52 5.82 7.38 2.33 4.85-3.3 4.08-4.08 6.02-.78 1.94 3.3 8.54 2.52 11.07-.78 2.52-.97 3.68-7.18 5.24s-2.14 5.44-7.57 9.52c-5.44 4.08-7.57 4.47-9.32 5.05s-7.96 2.52-16.5 3.49c-8.54.97-11.84.39-12.81-1.36-.97-1.75-9.32-3.88-15.34-5.44-6.02-1.55-11.26-.58-11.84-6.6-.58-6.02-3.69-12.04-10.1-20.77-6.41-8.74-10.68-6.41-12.23-12.43-1.55-6.02-1.75-9.12.78-11.45 2.52-2.33 1.16-7.77 3.11-11.65 1.94-3.88 2.72-.58 3.69-4.27.97-3.69 0-5.44 0-5.44Z" fill="#fffc31" class="fill-fbc15e"></path><path d="M592.96 637s-.34-15.01 7.68-22.78c8.02-7.77 35.93-17.19 50.19-17.4 14.26-.21 43.77 18.43 55.94 26.71 12.17 8.28 25.63 18.64 36.24 19.93 10.61 1.29 26.92 19.93 26.92 19.93s-3.37 17.86 2.33 31.06c5.69 13.2 15.79 22 24.33 31.58 8.54 9.58 10.35 28.22 10.35 35.2 0 6.99 7.25 21.36 7.25 21.36s-12.94-3.75-28.73-8.15c-15.79-4.4-24.96-15.54-33.39-22.78-8.43-7.23-20.19-17.6-20.19-17.6s-39.6-35.2-52.03-58.24-15.27-21.23-27.44-30.29c-12.17-9.06-30.29-11.39-39.6-11.13-9.32.26-19.85 2.59-19.85 2.59Z" fill="#ff7551" class="fill-ff7551"></path><path d="M793.49 623.54c-4.92 4.92-6.73 9.32-4.14 13.2 2.59 3.88 8.67 6.99 10.68 7.25s10.55-.78 12.1-2.33 3.11-7.25 2.07-9.58.52-3.11-4.4-5.69c-4.92-2.59-3.24-5.1-9.77-3.98l-6.53 1.13ZM445.59 361.83s-16.83 10.1-20.19 46.34c-3.37 36.24 15.01 51.25 20.19 56.95 5.18 5.69 21.49 12.94 21.49 12.94s25.63-15.53 25.89-58.11c.26-42.58-30.03-63.29-36.5-64.33s-10.87 6.21-10.87 6.21Z" fill="#2a7a43" class="fill-3e6a4b"></path></svg>